# xmcd
#
# Track frame offsets: 
#        150
#        16150
#        30925
#        45196
#        61731
#        82942
#        103492
#        114630
#        131205
#        147364
#        167691
#        182991
#        207441
#
# Disc length: 2844 seconds
#
# Revision: 0
# Processed by: cddbd v1.5.2PL0 Copyright (c) Steve Scherf et al.
# Submitted via: ExactAudioCopyFreeDBPlugin 1.0
#
DISCID=ac0b1a0d
DTITLE=Andy Fairweather Low and The Lowriders - Zone-O-Tone
DYEAR=2013
DGENRE=Blues
TTITLE0=Dance On
TTITLE1=Deep River Blues
TTITLE2=Let Me Be Your Angel
TTITLE3=Roll Ya Activator
TTITLE4=Hard Way To Go
TTITLE5=Breakin' Chains
TTITLE6=Love, Hope, Faith and Mercy
TTITLE7=La La Music
TTITLE8=Unclouded Day
TTITLE9=Mother Earth
TTITLE10=You'll Never Beat The Devil
TTITLE11=Blood Toys
TTITLE12=Unclouded Day (slight return)
EXTD=
EXTT0=
EXTT1=
EXTT2=
EXTT3=
EXTT4=
EXTT5=
EXTT6=
EXTT7=
EXTT8=
EXTT9=
EXTT10=
EXTT11=
EXTT12=
PLAYORDER=
